<svg xmlns="http://www.w3.org/2000/svg" viewBox="0 0 13 13" width="13" height="13">
    <g fill="none" stroke="#AFB1B3" stroke-width="1.2" stroke-linecap="round" stroke-linejoin="round">
        <path d="M5,1 Q3,1 3,3 L3,5.5 Q3,6.5 2,6.5 Q3,6.5 3,7.5 L3,10 Q3,12 5,12"/>
        <path d="M8,1 Q10,1 10,3 L10,5.5 Q10,6.5 11,6.5 Q10,6.5 10,7.5 L10,10 Q10,12 8,12"/>
    </g>
    <g fill="#AFB1B3">
        <rect x="4.5" y="3.5" width="5" height="1" rx="0.5"/>
        <rect x="4.5" y="5.5" width="3.5" height="1" rx="0.5"/>
        <rect x="4.5" y="7.5" width="4.5" height="1" rx="0.5"/>
        <rect x="4.5" y="9.5" width="3" height="1" rx="0.5"/>
    </g>
</svg>
